<svg width="138" height="46" viewBox="0 0 138 46" fill="none" xmlns="http://www.w3.org/2000/svg">
<rect x="0.5" y="0.5" width="137" height="45" rx="6.5" fill="black"/>
<path d="M93.7547 22.0812V24.7158H92.1032V26.4436H93.7547V32.3144C93.7547 34.319 94.6615 35.1209 96.943 35.1209C97.3439 35.1209 97.7258 35.0731 98.0599 35.0159V33.3071C97.7735 33.3358 97.5921 33.3549 97.2771 33.3549C96.2557 33.3549 95.807 32.8776 95.807 31.7893V26.4436H98.0599V24.7158H95.807V22.0812H93.7547Z" fill="white"/>
<path d="M103.872 35.264C106.907 35.264 108.769 33.2308 108.769 29.8611C108.769 26.5105 106.898 24.4676 103.872 24.4676C100.836 24.4676 98.9652 26.5105 98.9652 29.8611C98.9652 33.2308 100.827 35.264 103.872 35.264ZM103.872 33.4408C102.087 33.4408 101.084 32.133 101.084 29.8611C101.084 27.6082 102.087 26.2909 103.872 26.2909C105.647 26.2909 106.659 27.6082 106.659 29.8611C106.659 32.1234 105.647 33.4408 103.872 33.4408Z" fill="white"/>
<path d="M110.361 35.0636H112.414V28.9256C112.414 27.465 113.512 26.4818 115.068 26.4818C115.43 26.4818 116.041 26.5486 116.213 26.6059V24.5822C115.994 24.5249 115.602 24.4963 115.297 24.4963C113.941 24.4963 112.786 25.2409 112.49 26.2623H112.337V24.6681H110.361V35.0636Z" fill="white"/>
<path d="M121.309 26.2145C122.827 26.2145 123.82 27.2741 123.867 28.9065H118.617C118.732 27.2837 119.791 26.2145 121.309 26.2145ZM123.858 32.2571C123.476 33.0685 122.626 33.5171 121.385 33.5171C119.744 33.5171 118.684 32.3621 118.617 30.5388V30.4243H125.958V29.7083C125.958 26.4436 124.211 24.4676 121.319 24.4676C118.388 24.4676 116.527 26.5773 116.527 29.8993C116.527 33.2212 118.35 35.264 121.328 35.264C123.705 35.264 125.366 34.1185 125.834 32.2571H123.858Z" fill="white"/>
<path d="M80.2956 31.2247C80.4539 33.7774 82.5811 35.4099 85.7472 35.4099C89.1309 35.4099 91.2483 33.6982 91.2483 30.9674C91.2483 28.8204 90.0412 27.6332 87.1126 26.9505L85.5394 26.5646C83.6793 26.1293 82.9274 25.5455 82.9274 24.5264C82.9274 23.2402 84.0949 22.3992 85.8461 22.3992C87.5083 22.3992 88.656 23.2204 88.8638 24.5363H91.0207C90.8921 22.1321 88.7748 20.4402 85.8758 20.4402C82.7592 20.4402 80.6814 22.1321 80.6814 24.6748C80.6814 26.7724 81.8588 28.019 84.4412 28.6226L86.2815 29.0678C88.1712 29.513 89.0023 30.166 89.0023 31.2544C89.0023 32.5208 87.6963 33.441 85.9154 33.441C84.0058 33.441 82.68 32.5802 82.492 31.2247H80.2956Z" fill="white"/>
<path d="M59.0351 24.4963C57.6223 24.4963 56.4005 25.2027 55.7704 26.3864H55.6177V24.6681H53.6417V38.5192H55.6941V33.4885H55.8563C56.4005 34.5863 57.5746 35.2354 59.0542 35.2354C61.6793 35.2354 63.3499 33.1639 63.3499 29.8611C63.3499 26.5582 61.6793 24.4963 59.0351 24.4963ZM58.4528 33.393C56.7346 33.393 55.6559 32.0375 55.6559 29.8706C55.6559 27.6941 56.7346 26.3386 58.4624 26.3386C60.1997 26.3386 61.2402 27.6655 61.2402 29.8611C61.2402 32.0662 60.1997 33.393 58.4528 33.393Z" fill="white"/>
<path d="M70.5314 24.4963C69.1186 24.4963 67.8968 25.2027 67.2667 26.3864H67.114V24.6681H65.138V38.5192H67.1904V33.4885H67.3527C67.8968 34.5863 69.0709 35.2354 70.5505 35.2354C73.1757 35.2354 74.8462 33.1639 74.8462 29.8611C74.8462 26.5582 73.1757 24.4963 70.5314 24.4963ZM69.9491 33.393C68.2309 33.393 67.1522 32.0375 67.1522 29.8706C67.1522 27.6941 68.2309 26.3386 69.9587 26.3386C71.696 26.3386 72.7365 27.6655 72.7365 29.8611C72.7365 32.0662 71.696 33.393 69.9491 33.393Z" fill="white"/>
<path d="M49.9594 35.0636H52.3142L47.1594 20.7865H44.7749L39.6201 35.0636H41.8957L43.2117 31.2742H48.6534L49.9594 35.0636ZM45.8534 23.3787H46.0216L48.0894 29.4141H43.7756L45.8534 23.3787Z" fill="white"/>
<path d="M40.999 10.0176V16.905H43.4857C45.5381 16.905 46.7266 15.6401 46.7266 13.4398C46.7266 11.2729 45.5286 10.0176 43.4857 10.0176H40.999ZM42.0682 10.9913H43.3664C44.7935 10.9913 45.6383 11.8981 45.6383 13.4541C45.6383 15.034 44.8078 15.9313 43.3664 15.9313H42.0682V10.9913Z" fill="white"/>
<path d="M50.3664 17.0052C51.8842 17.0052 52.8149 15.9886 52.8149 14.3037C52.8149 12.6284 51.8794 11.607 50.3664 11.607C48.8486 11.607 47.9131 12.6284 47.9131 14.3037C47.9131 15.9886 48.8438 17.0052 50.3664 17.0052ZM50.3664 16.0936C49.4739 16.0936 48.9727 15.4397 48.9727 14.3037C48.9727 13.1773 49.4739 12.5186 50.3664 12.5186C51.2542 12.5186 51.7601 13.1773 51.7601 14.3037C51.7601 15.4349 51.2542 16.0936 50.3664 16.0936Z" fill="white"/>
<path d="M60.7409 11.7072H59.7147L58.7888 15.6735H58.7076L57.6385 11.7072H56.6553L55.5861 15.6735H55.5097L54.579 11.7072H53.5385L54.9704 16.905H56.0252L57.0944 13.0771H57.1755L58.2494 16.905H59.3138L60.7409 11.7072Z" fill="white"/>
<path d="M61.9227 16.905H62.9489V13.8646C62.9489 13.0532 63.4309 12.5473 64.1898 12.5473C64.9487 12.5473 65.3115 12.9625 65.3115 13.7978V16.905H66.3377V13.54C66.3377 12.3038 65.6981 11.607 64.5383 11.607C63.7555 11.607 63.24 11.9554 62.987 12.5329H62.9107V11.7072H61.9227V16.905Z" fill="white"/>
<path d="M67.9538 16.905H68.98V9.67871H67.9538V16.905Z" fill="white"/>
<path d="M72.8394 17.0052C74.3572 17.0052 75.2879 15.9886 75.2879 14.3037C75.2879 12.6284 74.3524 11.607 72.8394 11.607C71.3216 11.607 70.3861 12.6284 70.3861 14.3037C70.3861 15.9886 71.3168 17.0052 72.8394 17.0052ZM72.8394 16.0936C71.9468 16.0936 71.4457 15.4397 71.4457 14.3037C71.4457 13.1773 71.9468 12.5186 72.8394 12.5186C73.7271 12.5186 74.2331 13.1773 74.2331 14.3037C74.2331 15.4349 73.7271 16.0936 72.8394 16.0936Z" fill="white"/>
<path d="M78.3454 16.127C77.787 16.127 77.3813 15.8549 77.3813 15.3872C77.3813 14.929 77.7059 14.6855 78.4218 14.6378L79.6914 14.5567V14.991C79.6914 15.6354 79.1187 16.127 78.3454 16.127ZM78.0829 16.9909C78.7655 16.9909 79.3334 16.6949 79.6437 16.1747H79.7248V16.905H80.7128V13.3539C80.7128 12.2561 79.9778 11.607 78.6748 11.607C77.4959 11.607 76.6558 12.1797 76.5508 13.0723H77.5436C77.6581 12.7048 78.0543 12.4948 78.627 12.4948C79.3287 12.4948 79.6914 12.805 79.6914 13.3539V13.8025L78.2834 13.8837C77.0472 13.96 76.3503 14.4994 76.3503 15.4349C76.3503 16.3847 77.0806 16.9909 78.0829 16.9909Z" fill="white"/>
<path d="M84.1952 16.9909C84.9111 16.9909 85.5173 16.652 85.8275 16.084H85.9087V16.905H86.8919V9.67871H85.8657V12.5329H85.7893C85.5077 11.9602 84.9063 11.6213 84.1952 11.6213C82.8826 11.6213 82.0378 12.6618 82.0378 14.3037C82.0378 15.9504 82.8731 16.9909 84.1952 16.9909ZM84.4863 12.5425C85.3455 12.5425 85.8848 13.225 85.8848 14.3085C85.8848 15.3967 85.3502 16.0697 84.4863 16.0697C83.6176 16.0697 83.0974 15.4063 83.0974 14.3037C83.0974 13.2107 83.6224 12.5425 84.4863 12.5425Z" fill="white"/>
<path d="M93.5463 17.0052C95.0641 17.0052 95.9949 15.9886 95.9949 14.3037C95.9949 12.6284 95.0594 11.607 93.5463 11.607C92.0285 11.607 91.093 12.6284 91.093 14.3037C91.093 15.9886 92.0238 17.0052 93.5463 17.0052ZM93.5463 16.0936C92.6538 16.0936 92.1526 15.4397 92.1526 14.3037C92.1526 13.1773 92.6538 12.5186 93.5463 12.5186C94.4341 12.5186 94.94 13.1773 94.94 14.3037C94.94 15.4349 94.4341 16.0936 93.5463 16.0936Z" fill="white"/>
<path d="M97.3532 16.905H98.3794V13.8646C98.3794 13.0532 98.8615 12.5473 99.6204 12.5473C100.379 12.5473 100.742 12.9625 100.742 13.7978V16.905H101.768V13.54C101.768 12.3038 101.129 11.607 99.9688 11.607C99.1861 11.607 98.6706 11.9554 98.4176 12.5329H98.3412V11.7072H97.3532V16.905Z" fill="white"/>
<path d="M106.494 10.4137V11.7311H105.669V12.595H106.494V15.5303C106.494 16.5327 106.948 16.9336 108.089 16.9336C108.289 16.9336 108.48 16.9097 108.647 16.8811V16.0267C108.504 16.0411 108.413 16.0506 108.256 16.0506C107.745 16.0506 107.521 15.812 107.521 15.2678V12.595H108.647V11.7311H107.521V10.4137H106.494Z" fill="white"/>
<path d="M110.024 16.905H111.051V13.8694C111.051 13.0818 111.518 12.552 112.358 12.552C113.084 12.552 113.471 12.972 113.471 13.8025V16.905H114.497V13.5496C114.497 12.3134 113.814 11.6118 112.707 11.6118C111.924 11.6118 111.375 11.9602 111.122 12.5425H111.041V9.67871H110.024V16.905Z" fill="white"/>
<path d="M118.199 12.4804C118.958 12.4804 119.454 13.0102 119.478 13.8264H116.853C116.91 13.015 117.44 12.4804 118.199 12.4804ZM119.473 15.5017C119.282 15.9074 118.857 16.1317 118.237 16.1317C117.416 16.1317 116.886 15.5542 116.853 14.6426V14.5853H120.523V14.2273C120.523 12.595 119.65 11.607 118.203 11.607C116.738 11.607 115.807 12.6618 115.807 14.3228C115.807 15.9838 116.719 17.0052 118.208 17.0052C119.397 17.0052 120.227 16.4324 120.461 15.5017H119.473Z" fill="white"/>
<path d="M28.4847 23.346C28.5096 21.4128 29.5478 19.5836 31.1947 18.5711C30.1557 17.0872 28.4155 16.1464 26.6049 16.0898C24.6738 15.8871 22.8016 17.2453 21.8176 17.2453C20.8144 17.2453 19.2993 16.1099 17.6678 16.1435C15.5411 16.2122 13.5586 17.4213 12.5239 19.2805C10.2998 23.1312 11.9588 28.7904 14.0893 31.903C15.1552 33.4272 16.401 35.1297 18.0311 35.0693C19.6262 35.0031 20.2219 34.0522 22.1474 34.0522C24.055 34.0522 24.6139 35.0693 26.277 35.0309C27.9887 35.0031 29.0671 33.5 30.0956 31.9614C30.8615 30.8754 31.4508 29.6751 31.8418 28.405C29.8303 27.5543 28.487 25.53 28.4847 23.346Z" fill="white"/>
<path d="M25.3433 14.0428C26.2765 12.9224 26.7363 11.4824 26.625 10.0286C25.1992 10.1783 23.8821 10.8598 22.9362 11.9371C22.0113 12.9897 21.53 14.4044 21.621 15.8027C23.0473 15.8174 24.4495 15.1544 25.3433 14.0428Z" fill="white"/>
<rect x="0.5" y="0.5" width="137" height="45" rx="6.5" stroke="#A6A6A6"/>
</svg>
