<svg width="156" height="46" viewBox="0 0 156 46" fill="none" xmlns="http://www.w3.org/2000/svg">
<rect x="0.5" y="0.5" width="155" height="45" rx="4.5" fill="black"/>
<path d="M78.7354 25.0138C76.0175 25.0138 73.8023 27.0712 73.8023 29.9048C73.8023 32.7211 76.0175 34.7957 78.7354 34.7957C81.4544 34.7957 83.6696 32.7211 83.6696 29.9048C83.6684 27.0712 81.4533 25.0138 78.7354 25.0138ZM78.7354 32.8706C77.2459 32.8706 75.962 31.6482 75.962 29.9059C75.962 28.1453 77.247 26.9412 78.7354 26.9412C80.2249 26.9412 81.5087 28.1453 81.5087 29.9059C81.5087 31.647 80.2249 32.8706 78.7354 32.8706ZM67.9725 25.0138C65.2547 25.0138 63.0395 27.0712 63.0395 29.9048C63.0395 32.7211 65.2547 34.7957 67.9725 34.7957C70.6916 34.7957 72.9068 32.7211 72.9068 29.9048C72.9068 27.0712 70.6916 25.0138 67.9725 25.0138ZM67.9725 32.8706C66.483 32.8706 65.1992 31.6482 65.1992 29.9059C65.1992 28.1453 66.4842 26.9412 67.9725 26.9412C69.462 26.9412 70.7459 28.1453 70.7459 29.9059C70.747 31.647 69.462 32.8706 67.9725 32.8706ZM55.1713 26.5157V28.5903H60.161C60.0119 29.7576 59.6213 30.6097 59.0251 31.202C58.2994 31.9242 57.1635 32.7211 55.1713 32.7211C52.0998 32.7211 49.6986 30.2567 49.6986 27.2C49.6986 24.1433 52.0998 21.6788 55.1713 21.6788C56.8284 21.6788 58.0382 22.3274 58.9315 23.1612L60.4025 21.6972C59.1545 20.5116 57.4986 19.6042 55.1713 19.6042C50.9639 19.6042 47.4268 23.0128 47.4268 27.2C47.4268 31.3871 50.9639 34.7957 55.1713 34.7957C57.442 34.7957 59.1556 34.054 60.4949 32.6648C61.8724 31.294 62.3011 29.3666 62.3011 27.8106C62.3011 27.3299 62.2641 26.8849 62.189 26.5146H55.1713V26.5157ZM107.527 28.1269C107.118 27.0344 105.87 25.0138 103.32 25.0138C100.788 25.0138 98.6837 26.9964 98.6837 29.9048C98.6837 32.6464 100.77 34.7957 103.561 34.7957C105.814 34.7957 107.117 33.4249 107.658 32.628L105.982 31.5159C105.424 32.3313 104.66 32.8683 103.561 32.8683C102.464 32.8683 101.681 32.3681 101.179 31.386L107.75 28.6812L107.527 28.1269ZM100.825 29.7576C100.77 27.867 102.296 26.9044 103.395 26.9044C104.251 26.9044 104.977 27.3311 105.22 27.9417L100.825 29.7576ZM95.4828 34.5002H97.6414V20.124H95.4828V34.5002ZM91.9445 26.1075H91.8706C91.3864 25.5325 90.455 25.0138 89.2833 25.0138C86.8254 25.0138 84.5733 27.1632 84.5733 29.9243C84.5733 32.6659 86.8254 34.7969 89.2833 34.7969C90.4562 34.7969 91.3864 34.2782 91.8706 33.686H91.9445V34.3898C91.9445 36.2608 90.9392 37.2613 89.3203 37.2613C87.9983 37.2613 87.179 36.3172 86.8439 35.5202L84.9638 36.2988C85.5035 37.5948 86.9364 39.1887 89.3203 39.1887C91.8521 39.1887 93.9933 37.7064 93.9933 34.0931V25.3117H91.9457V26.1075H91.9445ZM89.4693 32.8706C87.9798 32.8706 86.733 31.6286 86.733 29.9243C86.733 28.2005 87.9798 26.9412 89.4693 26.9412C90.9392 26.9412 92.0936 28.2005 92.0936 29.9243C92.0936 31.6286 90.9392 32.8706 89.4693 32.8706ZM117.643 20.124H112.476V34.5002H114.632V29.0538H117.642C120.031 29.0538 122.382 27.3322 122.382 24.5895C122.382 21.8467 120.033 20.124 117.643 20.124ZM117.698 27.0528H114.632V22.125H117.698C119.31 22.125 120.226 23.4533 120.226 24.5895C120.226 25.7027 119.31 27.0528 117.698 27.0528ZM131.024 24.9885C129.463 24.9885 127.846 25.6728 127.177 27.1896L129.091 27.9843C129.5 27.1896 130.263 26.9297 131.061 26.9297C132.176 26.9297 133.31 27.5956 133.328 28.7789V28.9273C132.938 28.7053 132.101 28.373 131.08 28.373C129.017 28.373 126.916 29.5011 126.916 31.6091C126.916 33.533 128.608 34.7716 130.503 34.7716C131.952 34.7716 132.752 34.1241 133.253 33.3651H133.327V34.4749H135.41V28.9629C135.411 26.4122 133.495 24.9885 131.024 24.9885ZM130.763 32.8672C130.058 32.8672 129.073 32.5153 129.073 31.6459C129.073 30.5361 130.3 30.1106 131.359 30.1106C132.306 30.1106 132.753 30.3142 133.328 30.5913C133.161 31.9242 132.009 32.8672 130.763 32.8672ZM142.992 25.3025L140.521 31.5355H140.447L137.881 25.3025H135.559L139.406 34.0137L137.212 38.8598H139.461L145.39 25.3025H142.992ZM123.572 34.5002H125.727V20.124H123.572V34.5002Z" fill="white"/>
<path d="M54.7938 11.7794C54.7938 12.7431 54.5072 13.5102 53.9329 14.0829C53.2812 14.7637 52.4307 15.1041 51.386 15.1041C50.3853 15.1041 49.5337 14.7591 48.8346 14.0691C48.1343 13.3779 47.7842 12.5223 47.7842 11.5011C47.7842 10.4788 48.1343 9.62317 48.8346 8.93317C49.5337 8.24202 50.3853 7.89702 51.386 7.89702C51.8829 7.89702 52.3579 7.99362 52.8085 8.18567C53.2604 8.37887 53.622 8.63532 53.8924 8.95617L53.2835 9.56337C52.8247 9.01712 52.1926 8.74457 51.3849 8.74457C50.6546 8.74457 50.0236 8.99987 49.4909 9.51047C48.9582 10.0211 48.6924 10.6846 48.6924 11.5C48.6924 12.3153 48.9582 12.9789 49.4909 13.4895C50.0236 14.0001 50.6546 14.2554 51.3849 14.2554C52.1591 14.2554 52.8051 13.9989 53.3216 13.4849C53.6567 13.1502 53.8508 12.6845 53.9028 12.0876H51.3849V11.2585H54.7441C54.7788 11.439 54.7938 11.6127 54.7938 11.7794Z" fill="white"/>
<path d="M60.121 8.89759H56.964V11.0849H59.8113V11.914H56.964V14.1013H60.121V14.95H56.0731V8.05004H60.121V8.89759Z" fill="white"/>
<path d="M63.8776 14.95H62.9866V8.89759H61.0499V8.05004H65.8143V8.89759H63.8776V14.95Z" fill="white"/>
<path d="M69.2613 14.95V8.05004H70.1522V14.95H69.2613Z" fill="white"/>
<path d="M74.1032 14.95H73.2123V8.89759H71.2756V8.05004H76.0399V8.89759H74.1032V14.95Z" fill="white"/>
<path d="M85.0588 14.0588C84.377 14.7557 83.53 15.1041 82.5166 15.1041C81.5031 15.1041 80.6561 14.7557 79.9755 14.0588C79.2937 13.3619 78.954 12.5086 78.954 11.5C78.954 10.4915 79.2937 9.63818 79.9755 8.94128C80.6561 8.24438 81.5031 7.89478 82.5166 7.89478C83.5242 7.89478 84.3701 8.24552 85.0542 8.94587C85.7383 9.64622 86.0803 10.4972 86.0803 11.5C86.0803 12.5086 85.7394 13.3619 85.0588 14.0588ZM80.633 13.4803C81.1461 13.9978 81.7735 14.2554 82.5166 14.2554C83.2596 14.2554 83.8882 13.9967 84.4001 13.4803C84.9132 12.9628 85.1709 12.3027 85.1709 11.5C85.1709 10.6973 84.9132 10.0372 84.4001 9.51973C83.8882 9.00223 83.2596 8.74463 82.5166 8.74463C81.7735 8.74463 81.1461 9.00338 80.633 9.51973C80.1211 10.0372 79.8634 10.6973 79.8634 11.5C79.8634 12.3027 80.1211 12.9628 80.633 13.4803Z" fill="white"/>
<path d="M87.3306 14.95V8.05004H88.4146L91.7841 13.4171H91.8223L91.7841 12.0877V8.05004H92.6751V14.95H91.7449L88.2193 9.32194H88.1811L88.2193 10.6513V14.95H87.3306Z" fill="white"/>
<path d="M54.7938 11.7794C54.7938 12.7431 54.5072 13.5102 53.9329 14.0829C53.2812 14.7637 52.4307 15.1041 51.386 15.1041C50.3853 15.1041 49.5337 14.7591 48.8346 14.0691C48.1343 13.3779 47.7842 12.5223 47.7842 11.5011C47.7842 10.4788 48.1343 9.62317 48.8346 8.93317C49.5337 8.24202 50.3853 7.89702 51.386 7.89702C51.8829 7.89702 52.3579 7.99362 52.8085 8.18567C53.2604 8.37887 53.622 8.63532 53.8924 8.95617L53.2835 9.56337C52.8247 9.01712 52.1926 8.74457 51.3849 8.74457C50.6546 8.74457 50.0236 8.99987 49.4909 9.51047C48.9582 10.0211 48.6924 10.6846 48.6924 11.5C48.6924 12.3153 48.9582 12.9789 49.4909 13.4895C50.0236 14.0001 50.6546 14.2554 51.3849 14.2554C52.1591 14.2554 52.8051 13.9989 53.3216 13.4849C53.6567 13.1502 53.8508 12.6845 53.9028 12.0876H51.3849V11.2585H54.7441C54.7788 11.439 54.7938 11.6127 54.7938 11.7794Z" stroke="white" stroke-width="0.2" stroke-miterlimit="10"/>
<path d="M60.121 8.89759H56.964V11.0849H59.8113V11.914H56.964V14.1013H60.121V14.95H56.0731V8.05004H60.121V8.89759Z" stroke="white" stroke-width="0.2" stroke-miterlimit="10"/>
<path d="M63.8776 14.95H62.9866V8.89759H61.0499V8.05004H65.8143V8.89759H63.8776V14.95Z" stroke="white" stroke-width="0.2" stroke-miterlimit="10"/>
<path d="M69.2613 14.95V8.05004H70.1522V14.95H69.2613Z" stroke="white" stroke-width="0.2" stroke-miterlimit="10"/>
<path d="M74.1032 14.95H73.2123V8.89759H71.2756V8.05004H76.0399V8.89759H74.1032V14.95Z" stroke="white" stroke-width="0.2" stroke-miterlimit="10"/>
<path d="M85.0588 14.0588C84.377 14.7557 83.53 15.1041 82.5166 15.1041C81.5031 15.1041 80.6561 14.7557 79.9755 14.0588C79.2937 13.3619 78.954 12.5086 78.954 11.5C78.954 10.4915 79.2937 9.63818 79.9755 8.94128C80.6561 8.24438 81.5031 7.89478 82.5166 7.89478C83.5242 7.89478 84.3701 8.24552 85.0542 8.94587C85.7383 9.64622 86.0803 10.4972 86.0803 11.5C86.0803 12.5086 85.7394 13.3619 85.0588 14.0588ZM80.633 13.4803C81.1461 13.9978 81.7735 14.2554 82.5166 14.2554C83.2596 14.2554 83.8882 13.9967 84.4001 13.4803C84.9132 12.9628 85.1709 12.3027 85.1709 11.5C85.1709 10.6973 84.9132 10.0372 84.4001 9.51973C83.8882 9.00223 83.2596 8.74463 82.5166 8.74463C81.7735 8.74463 81.1461 9.00338 80.633 9.51973C80.1211 10.0372 79.8634 10.6973 79.8634 11.5C79.8634 12.3027 80.1211 12.9628 80.633 13.4803Z" stroke="white" stroke-width="0.2" stroke-miterlimit="10"/>
<path d="M87.3306 14.95V8.05004H88.4146L91.7841 13.4171H91.8223L91.7841 12.0877V8.05004H92.6751V14.95H91.7449L88.2193 9.32194H88.1811L88.2193 10.6513V14.95H87.3306Z" stroke="white" stroke-width="0.2" stroke-miterlimit="10"/>
<g filter="url(#filter0_ii_40_353)">
<path d="M12.0594 8.66891C11.7232 9.02311 11.5244 9.57281 11.5244 10.2847V35.7181C11.5244 36.4311 11.7232 36.9796 12.0594 37.3338L12.1449 37.4166L26.4611 23.1693V23.0014V22.8335L12.1449 8.58496L12.0594 8.66891Z" fill="url(#paint0_linear_40_353)"/>
<path d="M31.2322 27.9197L26.4609 23.169V23.0011V22.8332L31.2334 18.0837L31.3408 18.1447L36.995 21.3417C38.6093 22.2548 38.6093 23.7486 36.995 24.6629L31.3408 27.8599L31.2322 27.9197Z" fill="url(#paint1_linear_40_353)"/>
<g filter="url(#filter1_i_40_353)">
<path d="M31.3412 27.8588L26.4601 23.0012L12.0596 37.3337C12.5911 37.8949 13.4705 37.9639 14.4608 37.405L31.3412 27.8588Z" fill="url(#paint2_linear_40_353)"/>
</g>
<path d="M31.3412 18.1436L14.4608 8.59864C13.4705 8.03859 12.5911 8.10875 12.0596 8.66995L26.4613 23.0024L31.3412 18.1436Z" fill="url(#paint3_linear_40_353)"/>
</g>
<rect x="0.5" y="0.5" width="155" height="45" rx="4.5" stroke="#A6A6A6"/>
<defs>
<filter id="filter0_ii_40_353" x="11.5244" y="8.21216" width="26.6816" height="29.5789" filterUnits="userSpaceOnUse" color-interpolation-filters="sRGB">
<feFlood flood-opacity="0" result="BackgroundImageFix"/>
<feBlend mode="normal" in="SourceGraphic" in2="BackgroundImageFix" result="shape"/>
<feColorMatrix in="SourceAlpha" type="matrix" values="0 0 0 0 0 0 0 0 0 0 0 0 0 0 0 0 0 0 127 0" result="hardAlpha"/>
<feOffset dy="-0.15"/>
<feComposite in2="hardAlpha" operator="arithmetic" k2="-1" k3="1"/>
<feColorMatrix type="matrix" values="0 0 0 0 0 0 0 0 0 0 0 0 0 0 0 0 0 0 0.12 0"/>
<feBlend mode="normal" in2="shape" result="effect1_innerShadow_40_353"/>
<feColorMatrix in="SourceAlpha" type="matrix" values="0 0 0 0 0 0 0 0 0 0 0 0 0 0 0 0 0 0 127 0" result="hardAlpha"/>
<feOffset dy="0.15"/>
<feComposite in2="hardAlpha" operator="arithmetic" k2="-1" k3="1"/>
<feColorMatrix type="matrix" values="0 0 0 0 1 0 0 0 0 1 0 0 0 0 1 0 0 0 0.25 0"/>
<feBlend mode="normal" in2="effect1_innerShadow_40_353" result="effect2_innerShadow_40_353"/>
</filter>
<filter id="filter1_i_40_353" x="12.0596" y="23.0012" width="19.2812" height="14.7898" filterUnits="userSpaceOnUse" color-interpolation-filters="sRGB">
<feFlood flood-opacity="0" result="BackgroundImageFix"/>
<feBlend mode="normal" in="SourceGraphic" in2="BackgroundImageFix" result="shape"/>
<feColorMatrix in="SourceAlpha" type="matrix" values="0 0 0 0 0 0 0 0 0 0 0 0 0 0 0 0 0 0 127 0" result="hardAlpha"/>
<feOffset dy="-0.15"/>
<feComposite in2="hardAlpha" operator="arithmetic" k2="-1" k3="1"/>
<feColorMatrix type="matrix" values="0 0 0 0 0 0 0 0 0 0 0 0 0 0 0 0 0 0 0.08 0"/>
<feBlend mode="normal" in2="shape" result="effect1_innerShadow_40_353"/>
</filter>
<linearGradient id="paint0_linear_40_353" x1="25.1921" y1="10.0156" x2="5.89302" y2="29.4079" gradientUnits="userSpaceOnUse">
<stop stop-color="#00A0FF"/>
<stop offset="0.0066" stop-color="#00A1FF"/>
<stop offset="0.2601" stop-color="#00BEFF"/>
<stop offset="0.5122" stop-color="#00D2FF"/>
<stop offset="0.7604" stop-color="#00DFFF"/>
<stop offset="1" stop-color="#00E3FF"/>
</linearGradient>
<linearGradient id="paint1_linear_40_353" x1="39.0964" y1="23.0011" x2="11.1367" y2="23.0011" gradientUnits="userSpaceOnUse">
<stop stop-color="#FFE000"/>
<stop offset="0.4087" stop-color="#FFBD00"/>
<stop offset="0.7754" stop-color="#FFA500"/>
<stop offset="1" stop-color="#FF9C00"/>
</linearGradient>
<linearGradient id="paint2_linear_40_353" x1="28.6904" y1="25.6392" x2="2.51847" y2="51.9376" gradientUnits="userSpaceOnUse">
<stop stop-color="#FF3A44"/>
<stop offset="1" stop-color="#C31162"/>
</linearGradient>
<linearGradient id="paint3_linear_40_353" x1="8.43274" y1="0.203416" x2="20.1193" y2="11.9464" gradientUnits="userSpaceOnUse">
<stop stop-color="#32A071"/>
<stop offset="0.0685" stop-color="#2DA771"/>
<stop offset="0.4762" stop-color="#15CF74"/>
<stop offset="0.8009" stop-color="#06E775"/>
<stop offset="1" stop-color="#00F076"/>
</linearGradient>
</defs>
</svg>
